<?xml version="1.0" encoding="utf-8"?>
<!-- Generator: Adobe Illustrator 22.1.0, SVG Export Plug-In . SVG Version: 6.00 Build 0)  -->
<svg version="1.1" id="Layer_1" xmlns="http://www.w3.org/2000/svg" xmlns:xlink="http://www.w3.org/1999/xlink" x="0px" y="0px"
	 viewBox="0 0 595.3 598" style="enable-background:new 0 0 595.3 598;" xml:space="preserve">
<style type="text/css">
	.st0{fill:#EFF1F3;}
</style>
<g>
	<path class="st0" d="M590.2,276.2l-1.8-1.2c-22-14.7-41.8-18.1-53.3-18.6c22.2-8,38.5-25.6,39.2-26.5l1.3-1.4l-1.8-0.7
		c-16.5-6.3-32-9.5-46.1-9.5c-6.8,0-12.3,0.8-16.5,1.7c14.5-11.8,28.2-34.1,28.9-35.2l1.1-1.9l-2.2-0.1c0,0-0.1,0-0.4,0
		c-5.4,0-54.9,2.2-144.5,79.1c-0.3,0.2-29.3,24.7-61.4,26.2c-0.1,0-0.1,0-0.2-0.1c-1.1-1.5,0.4-8.5,2.3-14.2
		c9.9-33.3,54.1-46.1,54.6-46.3c71.7-27.8,123.4-91.5,124-92.1l-1.9-1.8c-3.3,3-21.4,9.6-32.9,13.5c22.7-21.4,26.6-46.4,26.6-46.6
		l0.2-1.3l-1.4-0.1c-1.6-0.1-3.3-0.2-4.9-0.2c-15.7,0-30.8,6.4-41.2,12.2c12-16.1,14.6-39.4,14.7-40.5l0.2-1.6l-1.6,0.2
		c-28.2,3-47.4,18.6-56.5,27.9c3.3-15-0.6-41.9-0.8-43.3l-0.4-2.6l-1.8,1.9c-0.5,0.5-49.6,52.8-64.5,165.6c0,0.3-4,33.1-30.2,47.1
		c-1.9,1-3.6,1.5-5.1,1.5c-3.9,0-5.2-3.5-5.3-3.6l-0.1-0.3l-0.2-0.2c-13.9-14.4,15.6-64.1,15.9-64.6c28.1-47.7,35.4-90.6,36.7-118.1
		c1.3-29.9-4.1-48.8-4.1-49l-0.6-2.2l-1.5,1.7c-9.5,10.2-13.9,21.7-16,30.9c-1.7-20.5-4.9-50.3-4.9-50.7l-0.2-2l-1.7,1.1
		c-16.5,10.3-25.4,35-29.6,51.1c-1.5-23.1-11.8-49.5-12.3-50.8L287.3,9l-1.4,1.3c-14.8,13.9-20.5,41.1-22.6,56.4
		C258,47.7,240,26.7,239.1,25.6l-1.7-2l-0.5,2.6c-0.2,0.8-15.9,84.9,35.6,164.3c0.3,0.5,30.1,50.5,17.8,70.4
		c-1.7,2.8-3.7,4.2-6.1,4.2c-3.9,0-7.4-3.8-7.5-3.8l-0.3-0.2c-21-13.4-32.5-69.6-32.6-70.2C212,59.5,180.7,46.1,179.4,45.6l-2.6-1
		l0.9,2.6c2.9,8.3,3.3,31.6,3.4,42.7c-11-21.1-36.8-38.4-37.9-39.2l-1.7-1.1l-0.3,2c-3.4,25.8,2.2,44.5,6.9,55
		c-17-15.7-39.8-22-40.9-22.3l-1.8-0.5l0.2,1.9c3.1,31.8,13.5,49.6,20.7,58.3c-16.9-7.3-42.8-9.2-44.1-9.3l-2.2-0.2l0.9,2
		c0.8,1.8,21.6,45.5,134.7,91c0.4,0.1,38.2,12.8,50.3,41.6c0.7,1.7,0.7,3.2,0.1,4.6c-1.8,3.7-7.8,5.5-7.8,5.5
		c-4.9,1.4-10,2.1-15.1,2.1c-26.9,0-47.4-19.6-47.5-19.7C120,178,48.9,165.1,48.1,165l-2.3-0.4l0.9,2.1c0.5,1.1,9.8,23.5,27.1,37.2
		c-7.5-2.3-17.7-4.6-28.2-4.6c-9.9,0-18.6,2-25.8,6l-1.5,0.8l1.1,1.2c1,1.1,22.6,24.2,39.9,34.1c-1.9-0.1-4.1-0.2-6.6-0.2
		c-9.6,0-24.4,1.5-40,8.6l-1,0.5l0.3,1.1c0.3,0.9,6.9,21.5,41.4,32.3c-8.6,1.6-21.6,7.8-35.1,27.4l-1.1,1.6l1.8,0.4
		c0.2,0,17.6,4,46.1,4c28.4,0,73.1-4,124.7-23l0.1-0.1c0.1,0,9.2-4.6,24.9-4.6c13.6,0,27.9,3.3,42.5,9.8c2.5,1.1,4.1,2.7,4.7,4.8
		c1.3,4-1,8.7-1.6,9.8c-19.4,15.1-42.1,16.7-51,16.7c-2.5,0-3.9-0.1-4-0.1c-17.8-2-35.7-3-53.3-3c-88,0-143,25.7-143.5,25.9l-3,1.4
		l3.2,1c21.5,6.5,39.3,8,50.5,8c-27.9,9.7-41,33-41.1,33.3l-0.6,1.1l1.1,0.6c9,4.8,19.6,7.3,31.7,7.3c9,0,17.3-1.4,23.5-2.8
		c-18.3,14.2-30.9,45.4-31.5,46.9l-0.5,1.2l1.2,0.5c5.7,2.5,12.3,3.7,19.7,3.7c17.3,0,34.6-6.7,42.9-10.4
		c-16.7,23.1-14.4,49.6-14.3,49.9l0.2,1.9l1.7-0.9c0.9-0.5,86.7-47.8,128.3-136.5c0.1-0.3,14.2-29.3,43-30.1l0.4,0
		c10.1,0,10.3,12.5,10.3,13c0,25.9-46.2,60.6-46.7,61c-105.2,86.4-98.9,122.4-98.6,123.9l0.5,2.4l1.7-1.7
		c6.3-6.5,29.1-17.1,39.2-21.6c-13.8,19.5-14.6,52.4-14.6,53.9l0,1.7l1.7-0.5c27.3-7.8,41.7-21.6,48.5-30.6
		c-5.1,23.4,3,48.8,3.4,50.1l0.5,1.5l1.4-0.8c28.8-16.7,39.2-34.6,42.9-45.2c3.1,19.5,17.2,46.2,17.9,47.5l0.9,1.7l1.2-1.6
		c1.2-1.6,30.1-40.1,4.8-168.8c-0.1-0.4-9.5-41.2,9-66.3c1.6-2.2,3.6-3.2,5.9-3.2c2.1,0,3.9,0.9,4.4,1.2
		c18.3,23.3,16.8,52.5,16.8,52.8c-9.2,115.5,26.1,189.4,26.5,190.2l1.5,3.1l0.9-3.4c5.3-20.4,6.3-37.3,6.1-48.7
		c9.9,26.4,31.5,38.2,31.7,38.3l1.2,0.6l0.6-1.2c8.9-18.6,6-40.3,2.7-53.3c13.8,17.2,42.6,28.3,44,28.9l1.2,0.5l0.5-1.2
		c8.1-21.4-2.6-49-7.7-60.3c22.5,16.1,53.7,20,54.1,20l2.6,0.3l-1.3-2.3c-0.5-0.9-54.5-90.5-137.8-128.2c-0.3-0.1-29.6-12.8-29-40.7
		c0-2.1,0.7-4.8,5.6-4.8c2.9,0,5.9,1,5.9,1l0.4,0.1c24.6,0.9,54,37.2,54.2,37.5c58.6,86.9,133.4,89.4,141.7,89.4c0.3,0,0.5,0,0.5,0
		l2-0.1l-0.8-1.8c-4.7-10.2-11.4-17.5-17.9-22.7c15.7,5.4,26.8,6.6,33.7,6.6c9.4,0,13.6-2.2,13.8-2.3l1.1-0.6l-0.5-1.1
		c-11.2-24-25.2-36.5-35.9-42.9c7.7,1.2,16.4,1.9,25.8,1.9c13.7,0,24.2-1.4,24.3-1.4l1.6-0.2l-0.6-1.5
		c-6.7-17.3-26.7-28.4-40.4-34.2c19-0.1,41.6-8.8,42.5-9.2l2.4-0.9l-2.2-1.4c-0.5-0.3-46.6-28.9-112.1-28.9
		c-17.7,0-35.5,2.1-52.6,6.2c-0.1,0-13.1,1.8-28.4,1.8c-20.8,0-35.8-3.2-43.5-9.2c-3.3-2.6-5.1-5.6-5.3-9c-0.4-6.5,5.1-12.5,6-13.4
		c5.8-3.3,14.6-5,26.1-5c24.2,0,52.5,7.6,52.8,7.7c47.3,10.8,86.4,16.3,116.4,16.3c35.9,0,45.4-8,45.7-8.4l2.1-1.9l-2.8-0.4
		c-8.9-1.1-30.4-11.3-40.4-16.3c24.4-0.3,52-15.5,53.2-16.2L590.2,276.2z M534.5,290.9c-1.8,0-3.5-0.1-5.2-0.3l-6.9-0.7l6.1,3.2
		c1.3,0.7,29.2,15,43.3,18.5c-4.8,2.3-16.6,6.1-41.3,6.1c-29.7,0-68.7-5.5-115.7-16.2c-0.3-0.1-28.8-7.8-53.4-7.8
		c-12,0-21.3,1.8-27.5,5.4l-0.3,0.2c-0.3,0.3-7.3,7.3-6.9,15.5c0.2,4.2,2.3,7.8,6.3,10.9c8.2,6.5,23.4,9.8,45.1,9.8
		c15.4,0,28.6-1.8,28.8-1.8c17.1-4.1,34.6-6.1,52.1-6.1c56.4,0,98.3,21.5,108.4,27.1c-6.5,2.3-24.4,8.1-39.3,8.1
		c-3,0-5.8-0.2-8.2-0.7c-3.7-1.3-6.1-1.9-6.2-1.9l-0.9,2.4c1.9,0.9,4,1.6,6.4,2c11.4,3.9,38,15,46.6,34.4
		c-3.5,0.4-11.9,1.2-22.3,1.2c-13.4,0-25.1-1.3-34.9-3.8v0c-4.1-1.6-6.6-2-6.7-2l-0.6,2.5c2,0.7,4.2,1.4,6.5,2
		c10,3.9,28.6,15,42.9,44.8c-1.7,0.6-5.4,1.5-11.4,1.5c-8.2,0-22.3-1.8-43.1-10.4c-6.1-3.4-10.5-4.6-10.7-4.7l-0.9,2.4
		c3.5,1.7,7.1,3.2,10.4,4.6c7.8,4.4,18.3,12.3,25.1,25.9c-13.5-0.4-82.8-6.5-138-88.3c-1.2-1.5-30.3-37.4-56-38.5
		c-0.8-0.3-3.6-1.1-6.6-1.1c-5.1,0-8,2.6-8.1,7.3c-0.7,29.7,30.2,43,30.5,43.1c74.9,34,126.1,110.4,135.2,124.8
		c-8.6-1.4-36-7-54.4-22.5l-5.2-4.4l3.2,6c0.2,0.4,19.3,36.1,10.5,61.9c-6.7-2.7-38.5-16.6-46.5-35.3c-0.5-1.6-0.9-2.4-0.9-2.4
		l-2.4,0.9c0.3,0.8,0.6,1.7,0.9,2.4c2.8,8.1,11.1,36.1,0.7,59.4c-5.4-3.3-27.5-18.7-32.8-49c-0.1-1-0.2-1.5-0.2-1.5l-2.5,0.4
		c0.1,0.5,0.2,1,0.2,1.4c0.9,6.1,3.2,27.7-4,57.7c-6.7-15.6-32.8-84.5-24.7-185.5c0-0.3,1.6-30.7-17.5-54.8l-0.1-0.2l-0.2-0.1
		c-0.1-0.1-2.7-1.7-6-1.7c-3.1,0-5.9,1.5-8,4.3c-19.2,26-9.8,66.7-9.4,68.3c22.1,112.5,2,156.1-3.2,164.9
		c-4-7.8-18.2-36.9-17.1-52.7c0.1-0.5,0.1-0.8,0.1-0.8l-2.6-0.2c0,0.2,0,0.5-0.1,0.7c-0.5,4.6-4.8,28.5-42.3,50.8
		c-1.9-6.8-8.9-34.9,0-56.4l-2.4-1c-0.1,0.3-11.2,25.5-50.6,37.4c0.4-7.7,2.9-38.9,17.2-54.6l4-4.4l-5.5,2.3
		c-1.4,0.6-31.7,13.5-42.7,22.4c0.6-9.5,9.3-46.1,97.7-118.8c2-1.4,47.7-35.8,47.7-63c0-5.5-2.7-15.9-13.4-15.6
		c-30.4,0.9-45.2,31.3-45.3,31.6c-37.9,80.8-112.9,127-125.4,134.3c-0.2-7,0.6-30.8,17.3-50.4l4.4-5.1l-6,3.1
		c-0.2,0.1-23.9,12.5-46.7,12.5c-6.5,0-12.4-1-17.5-3c2.9-6.8,18.4-41.2,38-49.3c1.6-0.5,2.5-0.9,2.5-0.9l-0.8-2.4
		c-0.9,0.3-1.7,0.6-2.5,0.9c-4.8,1.6-17.6,5.3-32.1,5.3c-11.1,0-20.9-2.1-29.2-6.4c3.4-5.5,20.1-29.3,51.7-34.1
		c1-0.1,1.6-0.2,1.6-0.2l-0.4-2.5c-0.5,0.1-1,0.1-1.5,0.2c-2.1,0.3-6.5,0.7-12.9,0.7c-10.5,0-26.9-1.2-46.7-6.9
		c12.9-5.4,63.8-24.3,139.2-24.3c17.4,0,35.3,1,53,3c0.1,0,1.6,0.1,4.2,0.1c9.2,0,32.7-1.7,52.8-17.4l0.2-0.2l0.1-0.2
		c0.2-0.3,3.7-6.4,1.9-12c-0.9-2.8-3-5-6.1-6.4c-15-6.6-29.6-10-43.6-10c-15.8,0-25,4.3-26,4.8c-51.2,18.8-95.6,22.8-123.8,22.8
		c-22.8,0-38.4-2.5-43.6-3.5c15.7-21.9,30-25.2,37.3-25.2c0.9,0,1.8,0.1,2.7,0.2c1.1,0.3,2.3,0.5,3.5,0.8l0.7-2.5
		c-0.1,0-1.4-0.6-3.8-0.9c-35-8.4-45.1-27-47.1-31.7c14.8-6.5,28.7-7.9,37.8-7.9c8.7,0,14.3,1.2,14.3,1.2l0.7-2.5
		c-15.2-5-39.7-29.9-45.3-35.8c6.5-3.2,14.3-4.9,23-4.9c19,0,36.9,7.7,38.9,8.6l0,0c0,0,0,0,0,0l0.3,0.1l1.1-2.3l-0.3-0.1
		c-19.6-8.9-32-32.7-35.5-40.2c13,3,76.4,21.1,143.5,95.3c0.9,0.8,21.4,20.5,49.4,20.5c5.3,0,10.7-0.7,15.8-2.2
		c0.3-0.1,7.1-2.1,9.4-6.9c1-2.1,1-4.4,0-6.8c-12.6-29.9-50.3-42.5-51.8-43c-98.2-39.5-126.5-78.4-132.1-87.6
		c8.3,0.8,36.1,4.1,48.3,13c0.4,0.3,0.6,0.4,0.6,0.4l1.5-2.1c-0.2-0.1-0.4-0.3-0.5-0.4c-3.6-2.8-21.3-18.7-25.9-61
		c6.8,2.2,31.3,10.9,45.2,29l2-1.6c-0.2-0.2-16.5-22.3-12.1-60.8c6.6,4.7,30.3,22.6,37.7,42.2l2.4,6.3l0.1-6.8
		c0-1.4,0.4-32.3-2.6-46.2c8.1,6.3,34.2,34,60.4,141.8c0.5,2.4,11.7,57.6,33.6,71.7c0.7,0.8,4.6,4.5,9.2,4.5c3.3,0,6-1.8,8.3-5.4
		c13.1-21.3-16.6-71-17.8-73.2C229,118.7,236.8,44.6,238.9,29.5c5.9,7.3,24,31.2,23.2,48l0,0.7l2.6,0.2c0-0.2,0-0.5,0-0.7
		c0.3-4.7,3.5-45.2,21.6-64c3,8,14.2,40.3,11.1,61.4c-0.2,1-0.2,1.5-0.2,1.5l2.5,0.4c0.1-0.5,0.2-1,0.2-1.5
		c1.4-7.9,9-46.9,29.6-61.6c1,9.4,5,47.4,5.6,61.8c-0.1,2.4,0.1,3.7,0.1,3.8l2.6-0.1c0-0.9,0-2.2-0.1-3.7c0.2-7.2,2-25.3,15.4-40.9
		c3,13.2,15,81.3-32.9,162.7c-1.3,2.1-30.5,51.5-15.7,67.5c0.5,1.1,2.6,5,7.6,5c1.9,0,4-0.6,6.3-1.8c27.5-14.6,31.5-48.8,31.6-49.1
		c13.1-99.4,52.9-151.4,62-162.1c1.1,8.9,4,36.4-1.7,45.2c-0.7,0.8-1,1.3-1,1.3l2,1.7c0.4-0.4,0.8-0.9,1.2-1.4
		c5.4-6.6,25.2-27.7,57.6-31.8c-0.9,6.5-5.4,31-19.5,43.7c-4,2.6-6.3,4.4-6.4,4.5l1.4,2.1c2.3-1.2,4.5-2.8,6.5-4.6
		c9.4-6.1,27.9-16.3,47.2-16.3c1.1,0,2.2,0,3.3,0.1c-1.2,5.8-7.4,29.1-30.3,47.9l-5.3,4.3l6.5-2.1c1.1-0.4,21.9-7.2,33.3-12.4
		c-14.2,16-59.4,63.1-118.1,85.8c-0.5,0.1-45.9,13.3-56.3,47.9c-1,3-4.3,13.2-2,16.5c0.5,0.7,1.3,1.2,2.3,1.2l0.2,0
		c32.9-1.5,62.6-26.6,62.9-26.8c81.9-70.4,129.7-77.7,140.8-78.4c-4.6,7-20.4,30.3-34.1,37.2c-0.4,0.2-0.7,0.3-0.7,0.3l1.2,2.3
		c0.2-0.1,0.4-0.2,0.6-0.3c2.1-1,10.2-4.2,24.1-4.2c13.3,0,27.9,2.9,43.4,8.6c-5.1,5.1-24.4,23-47.3,27.3l0.5,2.5
		c0,0,2.7-0.5,7.4-0.5c10.2,0,30.5,2.3,53.5,17.1C578.4,279.5,554.8,290.9,534.5,290.9z"/>
	<path class="st0" d="M344.6,594.4l-2.1-4.3c-0.4-0.7-35.8-74.6-26.5-190.4c0-0.3,1.5-29.2-16.7-52.4c-0.7-0.4-2.3-1.1-4.1-1.1
		c-2.2,0-4,1-5.5,3c-18.4,24.9-9,65.4-8.9,65.8c25.3,129-3.6,167.7-4.9,169.3l-1.7,2.2l-1.3-2.4c-0.6-1.1-14.1-26.5-17.7-45.8
		c-4.6,11.7-15.8,28.2-42.5,43.7l-1.9,1.1l-0.7-2.1c-0.3-1.1-8.1-25.3-3.8-48.3c-7.8,9.6-22.2,21.9-47.5,29.2l-2.3,0.7l0-2.4
		c0-1.4,0.8-32.9,13.7-52.7c-10.4,4.7-31.5,14.6-37.4,20.8l-2.3,2.4l-0.7-3.3c-0.3-1.5-6.6-37.8,98.8-124.4
		c0.5-0.4,46.6-35.2,46.5-60.6c0-0.5-0.1-12.5-9.8-12.5l-0.4,0c-28.6,0.9-42.5,29.6-42.6,29.9C180.7,448.6,94.7,496,93.9,496.5
		l-2.4,1.3l-0.3-2.7c0-0.3-2.3-25.9,13.4-48.8c-9.1,3.9-25.2,9.7-41.5,9.7c-7.5,0-14.2-1.3-19.9-3.7l-1.6-0.7l0.6-1.6
		c0.5-1.3,12.5-31,30-45.8c-7.4,1.6-14.7,2.4-21.6,2.4c-12.1,0-22.9-2.5-31.9-7.4l-1.6-0.9l0.9-1.6c0.1-0.2,12.5-22.3,38.8-32.6
		c-11.3-0.2-28-1.9-47.9-8l-4.4-1.3l4.2-2c0.5-0.3,55.8-26,143.8-26c17.6,0,35.5,1,53.3,3c0.3,0,1.7,0.1,3.9,0.1
		c8.8,0,31.3-1.6,50.6-16.6c0.6-1.1,2.7-5.5,1.5-9.3c-0.6-1.9-2.1-3.4-4.5-4.5c-14.6-6.5-28.8-9.8-42.3-9.8
		c-15.5,0-24.6,4.5-24.7,4.5l-0.2,0.1c-51.7,19-96.5,23-124.9,23c-28.1,0-45.4-3.8-46.2-4l-2.6-0.6l1.5-2.2
		c12.8-18.6,25.1-25.1,33.6-27.3c-33.2-11-39.7-31.2-40-32.1l-0.5-1.5l1.4-0.6c15.7-7.2,30.6-8.7,40.2-8.7c1.5,0,3.1,0,4.6,0.1
		c-17.1-10.5-37.4-32.2-38.3-33.2l-1.6-1.7l2-1.1c7.3-4,16.1-6,26-6c9.7,0,19.2,2,26,3.9c-16.3-13.9-25-34.9-25.4-35.8l-1.2-3
		l3.2,0.5c0.7,0.1,71.9,13,147.7,96.7c0.8,0.8,20.8,19.5,47.1,19.5c5.1,0,10.1-0.7,15-2.1c0.1,0,5.8-1.7,7.5-5.2
		c0.6-1.3,0.6-2.7-0.1-4.2c-12.1-28.7-49.6-41.2-50-41.3c-113.3-45.6-134.2-89.4-135-91.2l-1.2-2.7l3,0.2c1.1,0.1,25.5,1.9,42.5,8.6
		c-7.6-9.8-16.7-27.4-19.6-57l-0.2-2.6l2.5,0.7c0.9,0.3,22.5,6.2,39.4,20.9c-4.7-11.3-9.2-29.2-6-53.1l0.4-2.8l2.4,1.6
		c1.1,0.7,25.6,17.1,37.1,37.6c-0.1-10.9-0.6-32.7-3.3-40.5l-1.3-3.7l3.6,1.4c1.3,0.5,32.8,14,64.9,145.6
		c0.1,0.6,11.6,56.7,32.4,69.9l0.3,0.2c0.1,0.1,3.5,3.7,7.1,3.7c2.1,0,4-1.3,5.6-3.9c12-19.5-17.5-69.4-17.8-69.9
		c-51.6-79.5-35.9-163.8-35.7-164.6l0.7-3.6l2.4,2.8c0.7,0.9,17.6,20.5,23.6,39.2c2.3-15.5,8.2-41.1,22.5-54.5l1.9-1.8l1,2.4
		c0.4,1.1,10,25.5,12.1,48.1c4.9-17.5,13.7-39.1,29-48.6l2.4-1.5l0.3,2.8c0,0.3,3,27.4,4.7,47.6c2.9-10.8,8-20.2,15.4-28.1l2.1-2.3
		l0.9,3c0.2,0.8,5.5,19.8,4.1,49.1c-1.2,27.6-8.6,70.5-36.7,118.3c-0.3,0.5-29.4,50-15.9,64l0.3,0.4l0.1,0.3
		c0.1,0.3,1.4,3.3,4.8,3.3c1.4,0,3-0.5,4.8-1.4c26-13.9,29.9-46.4,30-46.7c14.9-113,64.1-165.4,64.6-165.9l2.5-2.6l0.5,3.6
		c0.2,1.1,3.9,26.5,1.1,41.8c9.4-9.3,28.3-24,55.6-26.9l2.2-0.2l-0.2,2.2c-0.1,1-2.5,22.9-13.5,39c10.1-5.4,24.5-11.2,39.5-11.2
		c1.7,0,3.4,0.1,5,0.2l1.9,0.2l-0.3,1.9c0,0.2-3.7,24.1-25.2,45.3c8.4-2.9,27.2-9.6,30.6-12.7l0.3-0.3l2.5,2.4l-0.3,0.4
		c-0.5,0.6-52.4,64.5-124.2,92.3c-1.9,0.5-44.6,13.3-54.3,45.9c-2,6-3.2,12.1-2.5,13.6c31.6-1.5,60.6-25.8,60.9-26.1
		c89.7-77,139.4-79.2,144.8-79.2c0.3,0,0.5,0,0.5,0l3,0.1l-1.6,2.6c-1.4,2.3-13.9,22.2-27.5,34c4.6-0.9,9.5-1.3,14.7-1.3
		c14.2,0,29.8,3.2,46.3,9.5l2.5,0.9l-1.8,1.9c-0.7,0.7-16,17.3-37.3,25.8c12.6,0.9,31,5,51.3,18.6l2.4,1.6l-2.6,1.4
		c-1.1,0.6-27.4,15.1-51.4,16.2c10,4.9,30,14.2,38.5,15.3l3.9,0.5l-3,2.6c-0.4,0.3-10,8.5-46.1,8.5c-29.9,0-69.1-5.5-116.5-16.3
		c-1.2-0.3-28.8-7.7-52.7-7.7c-11.4,0-20,1.7-25.7,4.9c-0.8,0.9-6.2,6.7-5.8,13c0.2,3.2,1.9,6.2,5.1,8.7c7.6,6,22.5,9.1,43.2,9.1
		c15.3,0,28.2-1.7,28.3-1.7c17.2-4.1,34.9-6.2,52.7-6.2c65.8,0,111.9,28.7,112.4,29l3,1.9l-3.3,1.3c-0.9,0.4-21.7,8.4-40.4,9.1
		c14.6,6.4,32.3,17.3,38.6,33.6l0.8,2.1l-2.3,0.3c-1.1,0.1-11.2,1.4-24.3,1.4c-8.5,0-16.4-0.5-23.5-1.5c10,6.5,23.4,18.8,34.1,41.8
		l0.7,1.5l-1.5,0.8c-0.2,0.1-4.5,2.3-14,2.3c-6.3,0-16.7-1-31.4-5.8c6.8,5.9,12.2,13,16,21.2l1.1,2.5l-2.7,0.1c0,0-0.2,0-0.5,0
		c-8.4,0-83.3-2.5-142.1-89.6c-1.2-1.5-29.9-36.4-53.8-37.2l-0.5-0.1c-0.4-0.1-3.1-1-5.8-1c-4.4,0-5,2.3-5.1,4.3
		c-0.6,27.6,28.4,40.1,28.7,40.2c83.3,37.8,137.5,127.5,138,128.4l1.9,3.1l-3.6-0.4c-0.3,0-30.2-3.7-52.8-19.1
		c5.3,12,14.8,38.3,7,59l-0.6,1.7l-1.7-0.6c-1.2-0.5-28.6-11-42.9-27.4c3.3,14.3,5.1,34.2-3.2,51.6l-0.8,1.7l-1.7-0.9
		c-0.2-0.1-20.7-11.4-31-36.1c0,10.8-1.1,26.9-6.1,46.1L344.6,594.4z M295.2,345.2c2.2,0,4,0.9,4.7,1.3l0.2,0.1
		c18.5,23.6,17,52.8,16.9,53.1c-9.2,115.5,26,189.2,26.4,189.9l0.9,1.9l0.5-2.1c5.4-20.8,6.3-37.9,6-48.5l-0.1-2.9l1,2.8
		c9.7,26,31.3,37.9,31.5,38.1l0.7,0.4l0.4-0.7c8.6-18,6.2-38.7,2.7-53l-0.5-2.2l1.4,1.8c13.7,17.1,42.6,28.2,43.8,28.7l0.7,0.3
		l0.3-0.7c8.1-21.3-2.7-49-7.7-59.9l-0.8-1.7l1.5,1.1c22.5,16.1,53.5,19.9,53.8,19.9l1.6,0.2l-0.8-1.4c-0.5-0.9-54.6-90.4-137.6-128
		c-0.3-0.1-29.9-12.9-29.3-41.2c0.1-3.6,2.1-5.3,6.1-5.3c2.9,0,5.7,0.9,6,1.1l0.3,0.1c24.2,0.8,53.2,36.1,54.5,37.6
		c58.5,86.7,133,89.2,141.3,89.2c0.3,0,0.5,0,0.5,0l1.2,0l-0.5-1.1c-4.1-8.8-10-16.3-17.7-22.5l-2.2-1.8l2.7,0.9
		c15.9,5.5,27,6.6,33.6,6.6c9.2,0,13.4-2.1,13.5-2.2l0.7-0.4l-0.3-0.7c-11.4-24.3-25.7-36.6-35.7-42.6l-2.2-1.3l2.6,0.4
		c7.7,1.2,16.4,1.9,25.7,1.9c13,0,23.1-1.2,24.2-1.4l1-0.1l-0.4-0.9c-6.4-16.8-25.4-27.7-40.1-34l-2.2-0.9l2.4,0
		c19-0.1,41.4-8.8,42.3-9.1l1.5-0.6l-1.3-0.8c-0.5-0.3-46.3-28.8-111.8-28.8c-17.7,0-35.4,2.1-52.5,6.2c-0.2,0-13.1,1.8-28.5,1.8
		c-20.9,0-36.1-3.2-43.8-9.3c-3.4-2.7-5.3-5.9-5.5-9.4c-0.4-6.8,5.5-13.1,6.1-13.8l0.1-0.1c5.9-3.4,14.7-5.1,26.3-5.1
		c24,0,51.7,7.4,52.9,7.7c47.2,10.8,86.4,16.3,116.2,16.3c35.7,0,45-7.9,45.4-8.2l1.3-1.2l-1.7-0.2c-8.8-1.1-29.2-10.7-40.6-16.3
		l-1.9-0.9l2.1,0c24.2-0.3,51.8-15.5,52.9-16.1l1.1-0.6l-1.1-0.7c-21.4-14.3-40.7-18-53.1-18.5l-2.5-0.1l2.4-0.9
		c22.2-8,38.4-25.6,39-26.3l0.8-0.9l-1.1-0.4c-16.4-6.3-31.9-9.5-46-9.5c-5.9,0-11.4,0.6-16.4,1.7l-2,0.5l1.6-1.3
		c14.1-11.5,27.3-32.7,28.8-35l0.7-1.1l-1.3-0.1c0,0-0.1,0-0.4,0c-5.3,0-54.8,2.2-144.2,79c-0.3,0.3-29.6,24.8-61.7,26.3
		c0,0,0,0,0,0c-0.3,0-0.5-0.1-0.6-0.3c-1.3-1.9,0.7-10,2.3-14.6c9.9-33.2,53.1-46.1,54.9-46.6c68.7-26.6,119.1-86.4,123.4-91.6
		l-1.2-1.1c-4.5,3.5-24.3,10.4-32.7,13.3l-2.2,0.7l1.7-1.6c22.6-21.3,26.4-46.1,26.5-46.3l0.1-0.8l-0.8-0.1
		c-1.6-0.1-3.2-0.2-4.9-0.2c-15.8,0-31,6.6-41,12.1l-2,1.1l1.4-1.9c11.9-16,14.5-39.3,14.6-40.2l0.1-1l-1,0.1
		c-28.1,3-47.3,18.7-56.2,27.7l-1.2,1.3l0.4-1.7c3.3-14.9-0.6-41.9-0.8-43.1l-0.2-1.6l-1.1,1.2c-0.5,0.5-49.5,52.7-64.4,165.4
		c0,0.3-4,33.4-30.5,47.5c-1.9,1-3.7,1.6-5.3,1.6c-4.1,0-5.6-3.5-5.8-3.9l-0.1-0.2l-0.1-0.1c-14.2-14.8,15.5-64.7,15.8-65.2
		c28-47.6,35.4-90.4,36.6-117.9c1.3-29.2-3.9-48-4.1-48.8l-0.4-1.3l-0.9,1c-7.9,8.4-13.2,18.8-15.9,30.6l-0.7,3.2l-0.3-3.3
		c-1.6-20.5-4.9-50.4-4.9-50.7l-0.1-1.2l-1.1,0.7c-16.7,10.4-25.6,36.3-29.4,50.8l-0.8,3l-0.2-3.1C298.4,38.5,288,12.1,287.5,11
		l-0.4-1.1l-0.8,0.8c-14.7,13.8-20.4,41.1-22.5,56.1l-0.3,2.4l-0.6-2.3c-5.3-19-23.3-40-24.1-40.9l-1.1-1.2l-0.3,1.6
		c-0.2,0.8-15.8,84.7,35.6,163.9c0.3,0.5,30.4,50.6,17.8,71c-1.8,2.9-4,4.4-6.5,4.4c-4.1,0-7.8-3.9-7.8-4l-0.2-0.2
		c-21-13.4-32.6-69.9-32.8-70.5c-31.9-131.1-63-144.4-64.3-144.9l-1.6-0.6l0.6,1.6c2.9,8.2,3.4,30.4,3.4,42.8l0,2.1l-0.9-1.8
		c-11-21.1-36.7-38.3-37.8-39l-1.1-0.7l-0.2,1.3c-3.3,25.3,1.9,43.7,6.8,54.7l1,2.2l-1.8-1.7C130.8,91.3,108,85.1,107,84.8l-1.1-0.3
		l0.1,1.1c3,30.9,12.8,48.6,20.6,58l1.3,1.6l-1.9-0.8c-16.8-7.2-42.9-9.2-44-9.3l-1.3-0.1l0.5,1.2c0.8,1.8,21.5,45.3,134.5,90.7
		c0.4,0.1,38.3,12.7,50.6,41.9c0.8,1.8,0.8,3.5,0,5.1c-1.9,4-8.1,5.7-8.1,5.8c-5,1.4-10.1,2.1-15.2,2.1c-26.7,0-47-19-47.8-19.8
		c-75.5-83.5-146.4-96.3-147.1-96.4l-1.4-0.2l0.5,1.3c0.4,0.9,9.7,23.4,27,37l2.1,1.6l-2.5-0.8c-6.8-2.1-17.3-4.5-28-4.5
		c-9.8,0-18.4,2-25.5,5.9l-0.9,0.5l0.7,0.7c0.9,1,22.5,24.1,39.8,34l1.9,1.1l-2.2-0.2c-2.1-0.2-4.3-0.2-6.5-0.2
		c-9.6,0-24.2,1.5-39.8,8.6l-0.6,0.3l0.2,0.7c0.3,0.9,6.8,21.2,41.1,32l1.9,0.6l-2,0.4c-8.4,1.6-21.3,7.6-34.8,27.2l-0.7,1l1.1,0.3
		c0.7,0.2,18,4,45.9,4c28.4,0,73-4,124.6-22.9l0.1-0.1c0.1,0,9.2-4.6,25.1-4.6c13.7,0,28,3.3,42.7,9.8c2.6,1.2,4.3,2.9,5,5.1
		c1.4,4.2-1.1,9.2-1.6,10.1l-0.1,0.2c-19.6,15.2-42.4,16.8-51.3,16.8c-2.3,0-3.7-0.1-4-0.1c-17.8-2-35.7-3-53.2-3
		c-87.7,0-142.8,25.6-143.3,25.9l-1.8,0.9l1.9,0.6c21.5,6.5,39.2,7.9,50.4,8l2.9,0l-2.8,1C32.1,373.8,19.1,397,19,397.2l-0.4,0.7
		l0.7,0.4c8.9,4.8,19.5,7.2,31.4,7.2c7.5,0,15.4-1,23.4-2.8l2.2-0.5l-1.8,1.4c-18.2,14.1-30.8,45.4-31.4,46.7L43,451l0.7,0.3
		c5.6,2.4,12.2,3.7,19.5,3.7c17.1,0,34.1-6.5,42.7-10.3l1.7-0.8l-1.1,1.5c-16.6,23-14.3,49.3-14.3,49.6l0.1,1.2l1-0.6
		c0.9-0.5,86.5-47.7,128.1-136.3c0.1-0.3,14.2-29.5,43.5-30.4l0.4,0c10.6,0,10.8,13,10.8,13.5c0,25.9-45,59.9-46.9,61.4
		c-104.9,86.2-98.8,121.9-98.4,123.4l0.3,1.5l1-1.1c6.4-6.6,29.6-17.4,39.3-21.7l1.7-0.7l-1,1.5c-13.7,19.4-14.5,52.2-14.5,53.6
		l0,1.1l1-0.3c26.5-7.6,40.9-20.7,48.3-30.4l1.4-1.8l-0.5,2.2c-5.1,23.3,3,48.7,3.4,49.8l0.3,0.9l0.8-0.5
		c27.8-16.1,38.6-33.3,42.7-44.9l0.7-1.9l0.3,1.9c3,19.4,17.3,46.2,17.9,47.3l0.6,1.1l0.7-1c1.2-1.6,29.9-39.9,4.7-168.4
		c-0.1-0.4-9.6-41.4,9.1-66.6C290.6,346.4,292.7,345.2,295.2,345.2z M333,287.9C333,287.9,333,287.9,333,287.9
		C333,287.9,333,287.9,333,287.9z M343.9,587l-0.6-1.4c-7.8-18.3-32.7-86-24.7-185.7c0-0.3,1.7-30.3-17.4-54.4l-0.2-0.2
		c-0.1-0.1-2.6-1.6-5.7-1.6c-3,0-5.6,1.4-7.6,4.1c-19,25.8-9.7,66.2-9.3,67.9c9.4,47.8,12.3,88.7,8.6,121.5
		c-2.9,26.2-9.3,39.4-11.9,43.8l-0.5,0.8l-0.4-0.8c-4.3-8.4-18.2-37.1-17.2-53c0-0.1,0-0.2,0-0.3l-1.6-0.1c0,0.1,0,0.1,0,0.2
		c-0.5,4.6-4.8,28.8-42.5,51.2l-0.6,0.3l-0.2-0.6c-2.2-7.9-8.7-35-0.1-56.3l-1.5-0.6c-1.7,3.5-14,26.1-50.7,37.2l-0.7,0.2l0-0.7
		c0.5-8.9,3.1-39.3,17.3-54.9l2.5-2.7l-3.3,1.4c-0.3,0.1-31.4,13.4-42.6,22.3l-0.9,0.7l0.1-1.1c0.6-9.6,9.4-46.4,97.9-119.1
		c2-1.5,47.6-35.6,47.5-62.6c0-3.6-1.2-8.9-4.5-12.1c-2.2-2.1-5-3.1-8.3-3c-30.2,0.9-44.7,31-44.9,31.3
		C182.4,439,108.8,484.8,94.4,493.2l-0.7,0.4l0-0.8c-0.2-6.9,0.6-31,17.4-50.7l2.7-3.1l-3.6,1.9c-0.2,0.1-24.1,12.5-47,12.5
		c-6.6,0-12.5-1-17.7-3l-0.5-0.2l0.2-0.5c2.9-6.8,18.4-41.4,38.3-49.6c1-0.3,1.7-0.6,2.1-0.7l-0.5-1.5c-0.7,0.2-1.4,0.5-2,0.7
		c-4.9,1.6-17.7,5.4-32.3,5.4c-11.2,0-21.1-2.2-29.5-6.4l-0.5-0.2l0.3-0.5c3.1-4.9,19.9-29.4,52.1-34.4c0.5-0.1,0.8-0.1,1.1-0.1
		l-0.2-1.6c-0.3,0-0.7,0.1-1,0.1c-2.1,0.3-6.6,0.7-12.9,0.7c-10.3,0-26.8-1.2-46.9-6.9l-1.4-0.4l1.3-0.5
		c13.7-5.7,64.4-24.3,139.4-24.3c17.5,0,35.3,1,53,3c0.4,0,1.8,0.1,4.2,0.1c9.1,0,32.5-1.7,52.5-17.3l0.1-0.1l0.1-0.1
		c0.1-0.3,3.6-6.3,1.9-11.6c-0.9-2.7-2.8-4.7-5.9-6.1c-14.9-6.6-29.5-10-43.4-10c-15.7,0-24.8,4.3-25.8,4.8
		C137.9,311,93.5,315,65.3,315c-22.6,0-38.1-2.5-43.7-3.5l-0.8-0.1l0.5-0.6c15.8-22.1,30.4-25.5,37.7-25.5c1,0,1.9,0.1,2.8,0.2
		c1,0.2,2.1,0.5,3.1,0.7l0.5-1.6c-0.6-0.2-1.7-0.5-3.2-0.7c-34.9-8.3-45.1-26.6-47.5-32l-0.2-0.5l0.5-0.2c14.9-6.5,28.9-7.9,38-7.9
		c7.3,0,12.5,0.9,14,1.2l0.4-1.6c-15.1-5.3-38.3-28.7-45.1-35.7l-0.5-0.5l0.6-0.3c6.6-3.3,14.4-4.9,23.3-4.9c18.7,0,36.4,7.4,39,8.6
		l0.7-1.4c-19.7-9.1-32.2-33.2-35.6-40.3l-0.4-0.9l1,0.2c12.2,2.8,76.3,20.8,143.8,95.4c0.8,0.8,21.2,20.3,49,20.3
		c5.3,0,10.6-0.7,15.7-2.2c0.3-0.1,6.9-2,9.1-6.6c0.9-2,0.9-4.1,0-6.4c-12.6-29.8-49.9-42.2-51.5-42.7
		c-97.1-39.1-125.9-77.1-132.4-87.8l-0.5-0.9l1,0.1c8.3,0.8,36.2,4.1,48.5,13.1c0.1,0.1,0.1,0.1,0.2,0.1l0.9-1.3
		c0,0-0.1-0.1-0.1-0.1c-3.6-2.8-21.5-18.8-26.1-61.3l-0.1-0.8l0.7,0.2c7.1,2.2,31.2,10.9,45.2,28.8l1.3-1c-2.2-3.2-16-25-11.9-60.7
		l0.1-0.8l0.7,0.5c7,5,30.5,22.8,37.9,42.5l1.5,3.9l0.1-4.2c0-1.3,0.4-32.2-2.6-46.1l-0.3-1.3l1.1,0.8c7.5,5.8,34.1,33.3,60.6,142
		c0.5,2.4,11.7,57.4,33.4,71.4l0.1,0.1c0.7,0.7,4.5,4.3,8.9,4.3c3.1,0,5.7-1.7,7.8-5.2c12.9-21-16.6-70.5-17.8-72.6
		c-45.9-70.8-37.9-145.7-35.8-160l0.2-1.1l0.7,0.9c5.7,7,24.1,31.3,23.3,48.3l0,0.2l1.6,0.1c0,0,0-0.1,0-0.1
		c0.3-4.6,3.5-45.4,21.7-64.3l0.6-0.6l0.3,0.7C290.2,22.6,301,54,297.9,75c-0.1,0.4-0.1,0.8-0.2,1l1.6,0.3c0.1-0.3,0.1-0.7,0.2-1
		c1.3-7.8,9.1-47.1,29.8-61.9l0.7-0.5l0.1,0.9c0.8,7.8,5,47.2,5.6,61.8c0,1.5,0,2.7,0,3.3l1.6,0c0-0.9,0-2-0.1-3.2
		c0.2-7.2,2-25.5,15.5-41.2l0.6-0.8l0.2,1c2.9,12.9,15.1,81.4-32.9,163.1c-1.2,2.1-30.3,51.2-15.7,66.9l0.1,0.1
		c0.5,1.1,2.5,4.7,7.2,4.7c1.8,0,3.9-0.6,6-1.7c27.4-14.6,31.3-48.4,31.3-48.7c13.2-100.3,54-152.8,62.1-162.3l0.7-0.9l0.1,1.1
		c1.3,10.8,3.9,36.8-1.7,45.5c-0.3,0.4-0.6,0.7-0.8,1l1.2,1.1c0.3-0.3,0.5-0.7,0.8-1c5.4-6.5,25.3-27.9,58-32l0.7-0.1l-0.1,0.6
		c-1,7.1-5.5,31.3-19.7,44c-3.1,2.1-5.2,3.6-6,4.2l0.9,1.4c2.1-1.2,4.1-2.6,6-4.3c9.5-6.2,28.1-16.4,47.6-16.4c1.1,0,2.2,0,3.3,0.1
		l0.6,0l-0.1,0.6c-1.4,6.6-7.7,29.5-30.4,48.2l-3.2,2.7l4-1.3c0.2-0.1,21.7-7.1,33.2-12.3l2.2-1l-1.6,1.8
		c-12.7,14.4-58.9,63-118.3,86c-0.5,0.1-45.7,13.3-56,47.6c-2.1,6.2-3.8,13.6-2,16c0.4,0.6,1.1,0.9,1.9,0.9l0.1,0
		c32.8-1.5,62.3-26.4,62.6-26.7c81.1-69.6,128.5-77.7,141.1-78.5l1-0.1l-0.5,0.8c-4.5,7-20.5,30.5-34.3,37.4c-0.1,0-0.2,0.1-0.2,0.1
		l0.7,1.4c0,0,0.1,0,0.1-0.1c2.2-1,10.4-4.3,24.4-4.3c13.3,0,28,2.9,43.6,8.7l0.7,0.3l-0.6,0.6c-5.3,5.3-24.4,22.9-47.1,27.3
		l0.3,1.6c1-0.1,3.4-0.4,7-0.4c10.1,0,30.6,2.2,53.8,17.2l0.7,0.5l-0.8,0.4c-6.8,3.5-30.5,14.9-50.9,14.9l0,0
		c-1.8,0-3.5-0.1-5.2-0.3l-4.2-0.4l3.8,1.9c1.2,0.6,29.1,14.9,43.2,18.5l1.4,0.3l-1.3,0.6c-4.9,2.3-16.8,6.2-41.5,6.2
		c-29.7,0-68.7-5.5-115.8-16.2c-0.3-0.1-28.8-7.8-53.3-7.8c-12,0-21.1,1.8-27.2,5.4l-0.2,0.2c-0.2,0.2-7.1,7.1-6.7,15.1
		c0.2,4,2.3,7.6,6.1,10.6c8.1,6.4,23.2,9.7,44.8,9.7c15.4,0,28.6-1.8,28.8-1.8c17.1-4.1,34.7-6.2,52.2-6.2
		c56,0,97.3,20.8,108.6,27.2l1,0.5l-1,0.4c-6.9,2.4-24.6,8.1-39.5,8.1c-3.1,0-5.9-0.2-8.3-0.7c-2.8-1-4.8-1.6-5.8-1.8l-0.6,1.5
		c1.7,0.8,3.7,1.4,5.8,1.8c11.3,3.9,38.2,15,46.9,34.7l0.3,0.6l-0.7,0.1c-3.2,0.3-11.9,1.2-22.3,1.2c-13.5,0-25.2-1.3-35-3.8
		l-0.4-0.1c-2.9-1.1-5-1.6-5.8-1.8l-0.4,1.6c1.9,0.7,3.9,1.3,6,1.8c10,3.9,28.8,15,43.2,45l0.2,0.5l-0.5,0.2
		c-1.7,0.6-5.5,1.6-11.6,1.6c-8.2,0-22.4-1.8-43.3-10.4c-5-2.8-8.8-4.1-10.2-4.5l-0.6,1.5c3.4,1.6,6.7,3.1,10,4.4
		c7.8,4.3,18.4,12.4,25.4,26.1l0.4,0.8l-0.8,0c-13.4-0.4-83.1-6.5-138.4-88.5c-1.2-1.5-30.1-37.2-55.6-38.3l-0.1,0
		c-0.8-0.3-3.6-1.1-6.4-1.1c-4.9,0-7.5,2.4-7.6,6.8c-0.7,29.4,29.9,42.5,30.2,42.6c74.9,34,125.9,110.1,135.4,125l0.6,0.9l-1.1-0.2
		c-8.1-1.3-36-6.9-54.7-22.6l-3.2-2.7l2,3.7c0.2,0.4,19.4,36.2,10.6,62.3l-0.2,0.5l-0.5-0.2c-6.4-2.6-38.7-16.7-46.8-35.6
		c-0.3-0.9-0.6-1.6-0.7-2l-1.5,0.5c0.2,0.7,0.5,1.3,0.7,1.9c2.8,8.1,11.2,36.3,0.7,59.8l-0.2,0.5l-0.5-0.3
		c-4.6-2.8-27.6-18.5-33-49.4c-0.1-0.4-0.1-0.8-0.2-1l-1.6,0.3c0.1,0.3,0.1,0.6,0.2,0.9c0.9,6,3.2,27.7-4.1,57.9L343.9,587z
		 M295.2,342.7c3.3,0,6,1.6,6.3,1.8l0.3,0.2l0.1,0.2c19.4,24.4,17.7,54.8,17.6,55.1c-7.8,97.1,15.7,163.7,24.1,183.8
		c6.8-29.2,4.5-50.2,3.7-56c-0.1-0.4-0.2-0.9-0.2-1.4l-0.1-0.5l3.5-0.6l0.1,0.5c0,0,0.1,0.5,0.3,1.5c5.2,29.5,26.6,44.9,32.1,48.4
		c10-23,1.8-50.6-1-58.5c-0.3-0.7-0.6-1.6-0.9-2.4l-0.1-0.5l3.3-1.2l0.2,0.4c0,0,0.4,0.9,0.9,2.5c7.7,18.1,38.4,31.7,45.7,34.8
		c8.3-25.7-10.5-60.7-10.7-61l-4.5-8.3l7.2,6.1c17.7,14.9,43.8,20.6,53.1,22.2C465.4,492.7,415,419.1,341.9,386
		c-0.3-0.1-31.5-13.8-30.8-43.6c0.1-5,3.3-7.8,8.6-7.8c2.9,0,5.7,0.8,6.6,1.1c25.9,1.1,55,37.2,56.3,38.7
		c54,80.1,121.6,87.5,136.8,88.1c-6.8-13.1-17.1-20.7-24.5-24.9c-3.4-1.4-6.9-2.9-10.4-4.6l-0.4-0.2l1.2-3.3l0.4,0.1
		c0.8,0.2,5.1,1.6,10.8,4.7c20.7,8.5,34.8,10.3,42.9,10.3c5.4,0,8.9-0.8,10.7-1.3c-14.2-29.3-32.6-40.1-42.4-44
		c-2.2-0.6-4.4-1.2-6.5-2l-0.4-0.2l0.8-3.4l0.5,0.1c0.1,0,2.7,0.4,6.8,2c9.7,2.5,21.4,3.7,34.7,3.7c9.7,0,17.9-0.7,21.5-1.1
		c-8.8-18.9-35-29.7-46-33.5c-2.3-0.5-4.5-1.1-6.4-2l-0.4-0.2l1.2-3.3l0.4,0.1c0.6,0.2,2.9,0.8,6.2,1.9c2.3,0.4,5.1,0.7,8.1,0.7
		c14.1,0,30.7-5.1,38.1-7.7c-12.5-6.9-52.9-26.5-107.2-26.5c-17.5,0-35,2.1-52,6.1c-0.1,0-13.4,1.8-29,1.8
		c-21.8,0-37.1-3.3-45.4-9.9c-4-3.2-6.2-7-6.4-11.3c-0.5-8.4,6.7-15.6,7-15.9l0.3-0.2c6.3-3.7,15.7-5.5,27.8-5.5
		c24.6,0,53.3,7.7,53.5,7.8c47,10.8,85.9,16.2,115.6,16.2c22.6,0,34.3-3.2,39.8-5.5c-14.5-4.1-40.9-17.6-42-18.2l-8.5-4.4l9.5,1
		c1.6,0.2,3.3,0.3,5.1,0.3c19.5,0,42.1-10.5,49.7-14.4c-22.7-14.4-42.6-16.5-52.5-16.5c-4.6,0-7.3,0.5-7.3,0.5l-0.5,0.1l-0.6-3.5
		l0.5-0.1c21.9-4,40.5-20.7,46.5-26.6c-15.2-5.5-29.5-8.3-42.5-8.3c-13.8,0-21.8,3.2-23.9,4.2c-0.2,0.1-0.4,0.2-0.6,0.3l-0.4,0.2
		l-1.6-3.2l0.4-0.2c0,0,0.2-0.1,0.7-0.3c13.1-6.6,28.2-28.4,33.3-36.2c-13.9,1.2-60.7,10.5-139.5,78.2c-0.3,0.3-30.1,25.4-63.2,26.9
		l-0.2,0c-1.1,0-2.1-0.5-2.7-1.4c-2.4-3.3,0.5-12.9,1.9-16.9c10.4-34.8,56.1-48.1,56.6-48.2c56.9-22.1,101.7-67.8,116.3-84
		c-11.9,5.2-31,11.4-31.2,11.4l-9,2.9l7.3-6c21.8-18,28.4-39.9,30-47c-0.9,0-1.8-0.1-2.7-0.1c-19.2,0-37.7,10.1-47,16.2
		c-2,1.8-4.3,3.4-6.6,4.6l-0.4,0.2l-1.9-2.9l0.4-0.3c0.2-0.2,2.5-2,6.4-4.5c13.5-12.1,18-35,19.2-42.7
		c-31.9,4.3-51.4,25.2-56.7,31.5c-0.3,0.5-0.7,1-1.2,1.5l-0.3,0.3l-2.7-2.3l0.3-0.4c0,0,0.4-0.5,1-1.3c5.3-8.3,2.8-34.2,1.7-43.7
		c-9.5,11.5-48.3,63.7-61.1,160.9c0,0.3-3.9,34.6-31.8,49.5c-2.3,1.2-4.5,1.9-6.5,1.9c-5.2,0-7.4-3.9-8-5.2
		c-15-16.3,14.4-66,15.7-68.1c46.7-79.5,36.3-146.3,33-161.4c-12.7,15.3-14.4,32.8-14.6,39.8c0.1,1.4,0.1,2.7,0.1,3.7l0,0.5
		l-3.5,0.1l0-0.5c0-0.5-0.1-1.8-0.1-3.8c-0.5-14.1-4.5-51.4-5.5-60.9c-19.9,14.9-27.4,53.2-28.7,60.7c-0.1,0.5-0.2,1-0.2,1.5
		l-0.1,0.5l-3.5-0.6l0.1-0.5c0,0,0.1-0.5,0.2-1.5c3-20.2-7.2-50.4-10.8-60.4c-17.5,19-20.6,58.6-20.9,63.1c0,0.2,0,0.4,0,0.7l0,0.5
		l-3.6-0.2l0.1-1.2c0.7-16-16.1-38.8-22.4-46.7c-2.3,16.7-8.8,89.4,35.8,158.1c1.3,2.1,31.1,52.2,17.9,73.7
		c-2.3,3.7-5.2,5.6-8.7,5.6c-4.7,0-8.7-3.7-9.5-4.6c-22-14.2-33.3-69.7-33.8-72C215.7,87.9,190.5,58.4,181.8,51
		c2.7,14.6,2.3,43.6,2.3,44.9l-0.1,9.4l-3.3-8.8c-7.1-18.8-29.1-35.9-36.8-41.5c-4,37.6,12,59.3,12.1,59.5l0.3,0.4l-2.8,2.2
		l-0.3-0.4c-13.3-17.4-36.4-26.1-44.3-28.6c4.7,41.6,22.1,57.2,25.6,59.9c0.1,0.1,0.3,0.2,0.5,0.4l0.4,0.3l-2.1,2.9l-0.4-0.3
		c0,0-0.2-0.1-0.6-0.5c-11.6-8.4-37.7-11.8-47-12.8c7.4,11.7,37,48.6,131.3,86.5c1.6,0.5,39.3,13.1,52.1,43.3c1.1,2.5,1.1,4.9,0,7.2
		c-2.4,5-9.5,7-9.8,7.1c-5.2,1.5-10.5,2.2-15.9,2.2c-28.2,0-48.8-19.8-49.7-20.6C127.7,191.1,65.4,172.3,51,168.8
		c3.9,8.1,16.1,30.4,34.8,39l0.8,0.3l-1.5,3.3l-0.8-0.4c-2.3-1-19.9-8.5-38.6-8.5c-8.4,0-15.9,1.5-22.2,4.5
		c5.8,6,29.9,30.3,44.6,35.1l0.5,0.1l-0.9,3.4l-0.5-0.1c-0.2-0.1-5.7-1.2-14.2-1.2c-8.9,0-22.6,1.3-37.2,7.6
		c2.6,5.8,13.1,22.9,46.5,30.9c2.4,0.3,3.9,0.9,3.9,0.9l0.4,0.2l-1,3.3l-0.4-0.1c-1.2-0.3-2.4-0.5-3.5-0.8c-0.8-0.1-1.7-0.1-2.6-0.1
		c-7,0-21,3.2-36.4,24.4c6.1,1.1,21.1,3.4,42.7,3.4c28.1,0,72.4-3.9,123.6-22.8c1-0.5,10.3-4.9,26.2-4.9c14,0,28.8,3.4,43.8,10.1
		c3.3,1.5,5.5,3.7,6.4,6.7c1.9,5.8-1.8,12.2-2,12.5l-0.2,0.4l-0.2,0.2c-20.2,15.8-43.9,17.5-53.1,17.5c-2.4,0-3.8-0.1-4.2-0.1
		c-17.7-2-35.5-3-53-3c-72.6,0-122.2,17.4-137.7,23.7c19.3,5.3,35.2,6.5,45.2,6.5c6.3,0,10.7-0.4,12.8-0.7c0.5-0.1,1-0.1,1.5-0.2
		l0.5-0.1l0.5,3.5l-0.5,0.1c0,0-0.5,0.1-1.6,0.2c-30.8,4.7-47.4,27.7-51.1,33.4c8.2,4,17.7,6.1,28.5,6.1c14.4,0,27.1-3.7,31.9-5.3
		c0.8-0.3,1.7-0.6,2.5-0.9l0.5-0.1l1.1,3.3l-0.4,0.2c0,0-0.9,0.4-2.6,0.9c-19,7.8-34.2,40.8-37.5,48.6c4.9,1.8,10.6,2.8,16.8,2.8
		c22.6,0,46.3-12.3,46.5-12.4l8.3-4.4l-6.1,7.1c-16,18.7-17.3,41.4-17.2,49.2c15.9-9.4,87.5-54.9,124.5-133.7
		c0.1-0.3,14.9-31,45.7-31.9c3.6-0.1,6.7,1,9,3.3c3.6,3.4,4.8,8.9,4.8,12.8c0,27.5-45.9,62-47.9,63.4
		c-85,69.8-96.2,106.3-97.4,117.3c11.9-9,41.6-21.6,41.9-21.7l7.6-3.2l-5.6,6.1c-13.7,14.9-16.5,43.9-17,53.6
		c38.5-11.9,49.4-36.6,49.6-36.9l0.2-0.5l3.3,1.4l-0.2,0.5c-8.5,20.5-2.5,46.9-0.2,55.5c36.8-22,41-45.6,41.5-50.1
		c0-0.2,0-0.4,0.1-0.7l0-0.5l3.5,0.2l0,0.5c0,0,0,0.3-0.1,0.8c-1,15.1,12,42.3,16.7,51.6c5.2-9.6,24.2-53.9,2.7-163.8
		c-0.4-1.7-9.8-42.5,9.5-68.7C289,344.2,291.9,342.7,295.2,342.7z"/>
</g>
</svg>
